<svg width="76" height="39" viewBox="0 0 76 39" fill="none" xmlns="http://www.w3.org/2000/svg">
<path d="M29.8633 37C29.7331 36.7396 29.6273 36.2757 29.546 35.6084C28.4962 36.6989 27.2429 37.2441 25.7862 37.2441C24.4841 37.2441 23.414 36.8779 22.5757 36.1455C21.7457 35.4049 21.3306 34.4691 21.3306 33.3379C21.3306 31.9626 21.8515 30.8965 22.8931 30.1396C23.9429 29.3747 25.4159 28.9922 27.3121 28.9922H29.5093V27.9546C29.5093 27.1652 29.2733 26.5386 28.8013 26.0747C28.3293 25.6027 27.6335 25.3667 26.7139 25.3667C25.9083 25.3667 25.2328 25.5701 24.6876 25.9771C24.1423 26.384 23.8697 26.8763 23.8697 27.4541H21.5992C21.5992 26.7949 21.8311 26.1602 22.295 25.5498C22.767 24.9313 23.4018 24.443 24.1993 24.085C25.0049 23.7269 25.8879 23.5479 26.8482 23.5479C28.37 23.5479 29.5622 23.9303 30.4249 24.6953C31.2875 25.4521 31.7351 26.4979 31.7676 27.8325V33.9116C31.7676 35.1242 31.9223 36.0885 32.2315 36.8047V37H29.8633ZM26.1158 35.2788C26.8238 35.2788 27.4952 35.0957 28.1299 34.7295C28.7647 34.3633 29.2245 33.8872 29.5093 33.3013V30.5913H27.7393C24.9724 30.5913 23.5889 31.401 23.5889 33.0205C23.5889 33.7285 23.8249 34.2819 24.2969 34.6807C24.7689 35.0794 25.3752 35.2788 26.1158 35.2788ZM46.4893 30.5425C46.4893 32.5607 46.0255 34.1842 45.0977 35.4131C44.17 36.6338 42.9249 37.2441 41.3624 37.2441C39.6941 37.2441 38.4042 36.6541 37.4927 35.4741L37.3829 37H35.3077V18.25H37.566V25.2446C38.4774 24.1134 39.7348 23.5479 41.338 23.5479C42.9411 23.5479 44.1985 24.1541 45.1099 25.3667C46.0295 26.5793 46.4893 28.2394 46.4893 30.3472V30.5425ZM44.231 30.2861C44.231 28.748 43.934 27.5599 43.3399 26.7217C42.7458 25.8835 41.8913 25.4644 40.7764 25.4644C39.2872 25.4644 38.217 26.1561 37.566 27.5396V33.2524C38.2577 34.6359 39.336 35.3276 40.8008 35.3276C41.8832 35.3276 42.7255 34.9085 43.3277 34.0703C43.9299 33.2321 44.231 31.9707 44.231 30.2861Z" fill="black"/>
<path d="M2 6V21.5M2 37V21.5M2 21.5H16V37V16.5189V12.2" stroke="black" stroke-width="3"/>
<path d="M2.7325 4.07932C7.44571 1.41462 16.7001 -1.06755 16.012 10.3213" stroke="#D1D1D1" stroke-width="2"/>
<path d="M64.1626 38H61.9043V24.792H64.1626V38ZM61.7212 21.2886C61.7212 20.9224 61.8311 20.6131 62.0508 20.3608C62.2787 20.1086 62.6123 19.9824 63.0518 19.9824C63.4912 19.9824 63.8249 20.1086 64.0528 20.3608C64.2806 20.6131 64.3946 20.9224 64.3946 21.2886C64.3946 21.6548 64.2806 21.96 64.0528 22.2041C63.8249 22.4482 63.4912 22.5703 63.0518 22.5703C62.6123 22.5703 62.2787 22.4482 62.0508 22.2041C61.8311 21.96 61.7212 21.6548 61.7212 21.2886ZM70.8521 21.5938V24.792H73.3179V26.5376H70.8521V34.7285C70.8521 35.2575 70.9619 35.6562 71.1817 35.9248C71.4014 36.1852 71.7757 36.3154 72.3047 36.3154C72.5651 36.3154 72.9232 36.2666 73.3789 36.1689V38C72.7849 38.1628 72.2071 38.2441 71.6455 38.2441C70.6364 38.2441 69.8755 37.939 69.3628 37.3286C68.8501 36.7183 68.5938 35.8516 68.5938 34.7285V26.5376H66.189V24.792H68.5938V21.5938H70.8521Z" fill="black"/>
<path d="M58.3168 23.4833C58.9119 24.9842 59.0457 26.3284 58.7181 27.5158C58.3881 28.6972 57.6421 29.5182 56.4801 29.9789C55.2394 30.4709 54.1062 30.4124 53.0804 29.8036L53.4486 30.9708L51.9054 31.5827L46.3767 17.6387L48.0561 16.9728L50.1186 22.1746C50.4629 21.0646 51.2312 20.2732 52.4234 19.8005C53.6157 19.3278 54.7295 19.4079 55.7649 20.0409C56.8063 20.6716 57.6377 21.7706 58.2592 23.3381L58.3168 23.4833ZM56.5618 23.9586C56.1083 22.8147 55.537 22.0187 54.8481 21.5705C54.1591 21.1223 53.4001 21.0626 52.5709 21.3914C51.4634 21.8305 50.8715 22.6605 50.7953 23.8813L52.4798 28.1298C53.4022 28.9547 54.408 29.1512 55.4974 28.7193C56.3023 28.4001 56.8051 27.8401 57.0058 27.0391C57.2065 26.2382 57.0585 25.2114 56.5618 23.9586Z" fill="#D1D1D1"/>
</svg>
