<svg width="76" height="43" viewBox="0 0 76 43" fill="none" xmlns="http://www.w3.org/2000/svg">
<path d="M29.8633 41C29.7331 40.7396 29.6273 40.2757 29.546 39.6084C28.4962 40.6989 27.2429 41.2441 25.7862 41.2441C24.4841 41.2441 23.414 40.8779 22.5757 40.1455C21.7457 39.4049 21.3306 38.4691 21.3306 37.3379C21.3306 35.9626 21.8515 34.8965 22.8931 34.1396C23.9429 33.3747 25.4159 32.9922 27.3121 32.9922H29.5093V31.9546C29.5093 31.1652 29.2733 30.5386 28.8013 30.0747C28.3293 29.6027 27.6335 29.3667 26.7139 29.3667C25.9083 29.3667 25.2328 29.5701 24.6876 29.9771C24.1423 30.384 23.8697 30.8763 23.8697 31.4541H21.5992C21.5992 30.7949 21.8311 30.1602 22.295 29.5498C22.767 28.9313 23.4018 28.443 24.1993 28.085C25.0049 27.7269 25.8879 27.5479 26.8482 27.5479C28.37 27.5479 29.5622 27.9303 30.4249 28.6953C31.2875 29.4521 31.7351 30.4979 31.7676 31.8325V37.9116C31.7676 39.1242 31.9223 40.0885 32.2315 40.8047V41H29.8633ZM26.1158 39.2788C26.8238 39.2788 27.4952 39.0957 28.1299 38.7295C28.7647 38.3633 29.2245 37.8872 29.5093 37.3013V34.5913H27.7393C24.9724 34.5913 23.5889 35.401 23.5889 37.0205C23.5889 37.7285 23.8249 38.2819 24.2969 38.6807C24.7689 39.0794 25.3752 39.2788 26.1158 39.2788ZM46.4893 34.5425C46.4893 36.5607 46.0255 38.1842 45.0977 39.4131C44.17 40.6338 42.9249 41.2441 41.3624 41.2441C39.6941 41.2441 38.4042 40.6541 37.4927 39.4741L37.3829 41H35.3077V22.25H37.566V29.2446C38.4774 28.1134 39.7348 27.5479 41.338 27.5479C42.9411 27.5479 44.1985 28.1541 45.1099 29.3667C46.0295 30.5793 46.4893 32.2394 46.4893 34.3472V34.5425ZM44.231 34.2861C44.231 32.748 43.934 31.5599 43.3399 30.7217C42.7458 29.8835 41.8913 29.4644 40.7764 29.4644C39.2872 29.4644 38.217 30.1561 37.566 31.5396V37.2524C38.2577 38.6359 39.336 39.3276 40.8008 39.3276C41.8832 39.3276 42.7255 38.9085 43.3277 38.0703C43.9299 37.2321 44.231 35.9707 44.231 34.2861Z" fill="black"/>
<path d="M2 6V23.3793M2 40.7586V23.3793M2 23.3793H16.4828V40.7586V17.7943V12.9517" stroke="black" stroke-width="3"/>
<path d="M2.7325 4.07932C7.44571 1.41462 16.7001 -1.06755 16.012 10.3213" stroke="#D1D1D1" stroke-width="2"/>
<path d="M64.1626 42H61.9043V28.792H64.1626V42ZM61.7212 25.2886C61.7212 24.9224 61.8311 24.6131 62.0508 24.3608C62.2787 24.1086 62.6123 23.9824 63.0518 23.9824C63.4912 23.9824 63.8249 24.1086 64.0528 24.3608C64.2806 24.6131 64.3946 24.9224 64.3946 25.2886C64.3946 25.6548 64.2806 25.96 64.0528 26.2041C63.8249 26.4482 63.4912 26.5703 63.0518 26.5703C62.6123 26.5703 62.2787 26.4482 62.0508 26.2041C61.8311 25.96 61.7212 25.6548 61.7212 25.2886ZM70.8521 25.5938V28.792H73.3179V30.5376H70.8521V38.7285C70.8521 39.2575 70.9619 39.6562 71.1817 39.9248C71.4014 40.1852 71.7757 40.3154 72.3047 40.3154C72.5651 40.3154 72.9232 40.2666 73.3789 40.1689V42C72.7849 42.1628 72.2071 42.2441 71.6455 42.2441C70.6364 42.2441 69.8755 41.939 69.3628 41.3286C68.8501 40.7183 68.5938 39.8516 68.5938 38.7285V30.5376H66.189V28.792H68.5938V25.5938H70.8521Z" fill="black"/>
<path d="M58.3168 27.4833C58.9119 28.9842 59.0457 30.3284 58.7181 31.5158C58.3881 32.6972 57.6421 33.5182 56.4801 33.9789C55.2394 34.4709 54.1062 34.4124 53.0804 33.8036L53.4486 34.9708L51.9054 35.5827L46.3767 21.6387L48.0561 20.9728L50.1186 26.1746C50.4629 25.0646 51.2312 24.2732 52.4234 23.8005C53.6157 23.3278 54.7295 23.4079 55.7649 24.0409C56.8063 24.6716 57.6377 25.7706 58.2592 27.3381L58.3168 27.4833ZM56.5618 27.9586C56.1083 26.8147 55.537 26.0187 54.8481 25.5705C54.1591 25.1223 53.4001 25.0626 52.5709 25.3914C51.4634 25.8305 50.8715 26.6605 50.7953 27.8813L52.4798 32.1298C53.4022 32.9547 54.408 33.1512 55.4974 32.7193C56.3023 32.4001 56.8051 31.8401 57.0058 31.0391C57.2065 30.2382 57.0585 29.2114 56.5618 27.9586Z" fill="#D1D1D1"/>
</svg>
